<svg width="382" height="442" viewBox="0 0 382 442" fill="none" xmlns="http://www.w3.org/2000/svg">
<path d="M0 15C0 6.71574 6.71573 0 15 0H367C375.284 0 382 6.71573 382 15V427C382 435.284 375.284 442 367 442H15C6.71572 442 0 435.284 0 427V15Z" fill="white"/>
<path d="M185.966 93L196.572 103.607L80.6066 219.572L70 208.966L185.966 93Z" fill="black" fill-opacity="0.05"/>
<path d="M301.966 223L312.572 233.607L196.607 349.572L186 338.966L301.966 223Z" fill="black" fill-opacity="0.05"/>
<path d="M267.777 128L278.383 138.607L101.607 315.383L90.9999 304.777L267.777 128Z" fill="black" fill-opacity="0.05"/>
<path d="M186.319 92.6464L185.966 92.2929L185.612 92.6464L69.6465 208.612L69.2929 208.966L69.6465 209.319L80.2531 219.926L80.6066 220.279L80.9602 219.926L196.926 103.96L197.279 103.607L196.926 103.253L186.319 92.6464ZM302.319 222.646L301.966 222.293L301.612 222.646L185.647 338.612L185.293 338.966L185.647 339.319L196.253 349.926L196.607 350.279L196.96 349.926L312.926 233.96L313.279 233.607L312.926 233.253L302.319 222.646ZM268.13 127.646L267.777 127.293L267.423 127.646L90.6464 304.423L90.2928 304.777L90.6464 305.13L101.253 315.737L101.607 316.09L101.96 315.737L278.737 138.96L279.09 138.607L278.737 138.253L268.13 127.646ZM15 0.5H367C375.008 0.5 381.5 6.99187 381.5 15V427C381.5 435.008 375.008 441.5 367 441.5H15C6.99187 441.5 0.5 435.008 0.5 427V15C0.5 6.99188 6.99187 0.5 15 0.5ZM70.7071 208.966L185.966 93.7071L195.865 103.607L80.6066 218.865L70.7071 208.966ZM186.707 338.966L301.966 223.707L311.865 233.607L196.607 348.865L186.707 338.966ZM91.707 304.777L267.777 128.707L277.676 138.607L101.607 314.676L91.707 304.777Z" stroke="black" stroke-opacity="0.05"/>
</svg>
