<svg width="41" height="44" viewBox="0 0 41 44" fill="none" xmlns="http://www.w3.org/2000/svg">
<path d="M33.9421 15.5294H29.2857V2.58824C29.2857 1.16471 27.9679 0 26.3571 0H14.6429C13.0321 0 11.7143 1.16471 11.7143 2.58824V15.5294H7.05786C4.45143 15.5294 3.13357 18.3247 4.97857 19.9553L18.4207 31.8353C19.5629 32.8447 21.4079 32.8447 22.55 31.8353L35.9921 19.9553C37.8371 18.3247 36.5486 15.5294 33.9421 15.5294ZM0 41.4118C0 42.8353 1.31786 44 2.92857 44H38.0714C39.6821 44 41 42.8353 41 41.4118C41 39.9882 39.6821 38.8235 38.0714 38.8235H2.92857C1.31786 38.8235 0 39.9882 0 41.4118Z" fill="#003C69"/>
</svg>
