<svg width="154" height="154" viewBox="0 0 154 154" fill="none" xmlns="http://www.w3.org/2000/svg">
<path d="M77 64.5C77 61.8478 75.9464 59.3043 74.0711 57.4289C72.1957 55.5536 69.6522 54.5 67 54.5H52V92H69.5C71.4891 92 73.3968 92.7902 74.8033 94.1967C76.2098 95.6032 77 97.5109 77 99.5M77 64.5V99.5M77 64.5C77 61.8478 78.0536 59.3043 79.9289 57.4289C81.8043 55.5536 84.3478 54.5 87 54.5H102V92H84.5C82.5109 92 80.6032 92.7902 79.1967 94.1967C77.7902 95.6032 77 97.5109 77 99.5M2 17C2 8.71573 8.71573 2 17 2H137C145.284 2 152 8.71573 152 17V137C152 145.284 145.284 152 137 152H17C8.71573 152 2 145.284 2 137V17Z" stroke="white" stroke-width="4" stroke-linecap="round" stroke-linejoin="round"/>
</svg>
