<svg width="18" height="23" viewBox="0 0 18 23" fill="none" xmlns="http://www.w3.org/2000/svg">
<path d="M8.85089 22.75C10.1342 22.75 11.1842 21.7 11.1842 20.4167H6.51756C6.51756 21.7 7.55589 22.75 8.85089 22.75ZM15.8509 15.75V9.91667C15.8509 6.335 13.9376 3.33667 10.6009 2.54333V1.75C10.6009 0.781667 9.81922 0 8.85089 0C7.88256 0 7.10089 0.781667 7.10089 1.75V2.54333C3.75256 3.33667 1.85089 6.32333 1.85089 9.91667V15.75L0.34589 17.255C-0.38911 17.99 0.124223 19.25 1.16256 19.25H16.5276C17.5659 19.25 18.0909 17.99 17.3559 17.255L15.8509 15.75Z" fill="white"/>
</svg>
