<svg width="31" height="37" viewBox="0 0 31 37" fill="none" xmlns="http://www.w3.org/2000/svg">
<path d="M15.4999 36.3333C17.6541 36.3333 19.4166 34.6833 19.4166 32.6666H11.5833C11.5833 34.6833 13.3262 36.3333 15.4999 36.3333ZM27.2499 25.3333V16.1666C27.2499 10.5383 24.0383 5.82659 18.4374 4.57992V3.33325C18.4374 1.81159 17.1253 0.583252 15.4999 0.583252C13.8745 0.583252 12.5624 1.81159 12.5624 3.33325V4.57992C6.942 5.82659 3.74992 10.5199 3.74992 16.1666V25.3333L1.22367 27.6983C-0.0100824 28.8533 0.851584 30.8333 2.5945 30.8333H28.3858C30.1287 30.8333 31.0099 28.8533 29.7762 27.6983L27.2499 25.3333Z" fill="#003C69"/>
</svg>
