<svg width="15" height="17" viewBox="0 0 15 17" fill="none" xmlns="http://www.w3.org/2000/svg">
<path d="M10.9988 10.9631H10.3037L10.0574 10.6941C11.1132 9.29883 11.6587 7.39534 11.3596 5.37226C10.946 2.60173 8.90476 0.389295 6.44114 0.0504531C2.71932 -0.467775 -0.412985 3.08009 0.0445435 7.29568C0.343697 10.0861 2.29699 12.3982 4.74301 12.8666C6.52913 13.2055 8.20966 12.5876 9.44147 11.3917L9.67903 11.6707V12.458L13.4184 16.6935C13.7792 17.1021 14.3687 17.1021 14.7294 16.6935C15.0902 16.2849 15.0902 15.6172 14.7294 15.2086L10.9988 10.9631ZM5.71965 10.9631C3.5288 10.9631 1.76027 8.95999 1.76027 6.47847C1.76027 3.99696 3.5288 1.99381 5.71965 1.99381C7.91051 1.99381 9.67903 3.99696 9.67903 6.47847C9.67903 8.95999 7.91051 10.9631 5.71965 10.9631Z" fill="#323232"/>
</svg>
