<svg width="154" height="154" viewBox="0 0 154 154" fill="none" xmlns="http://www.w3.org/2000/svg">
<path d="M2 17C2 8.71573 8.71573 2 17 2H137C145.284 2 152 8.71573 152 17V137C152 145.284 145.284 152 137 152H17C8.71573 152 2 145.284 2 137V17Z" fill="#003C69"/>
<path d="M2 17C2 8.71573 8.71573 2 17 2H137C145.284 2 152 8.71573 152 17V137C152 145.284 145.284 152 137 152H17C8.71573 152 2 145.284 2 137V17Z" stroke="white" stroke-width="4" stroke-linecap="round" stroke-linejoin="round"/>
<path d="M109.5 63.5L92 76L109.5 88.5V63.5Z" stroke="white" stroke-width="4" stroke-linecap="round" stroke-linejoin="round"/>
<path d="M87 58.5H59.5C56.7386 58.5 54.5 60.7386 54.5 63.5V88.5C54.5 91.2614 56.7386 93.5 59.5 93.5H87C89.7614 93.5 92 91.2614 92 88.5V63.5C92 60.7386 89.7614 58.5 87 58.5Z" stroke="white" stroke-width="4" stroke-linecap="round" stroke-linejoin="round"/>
</svg>
